<svg width="127" height="118" viewBox="0 0 127 118" fill="none" xmlns="http://www.w3.org/2000/svg">
<path fill-rule="evenodd" clip-rule="evenodd" d="M79.332 1L96.8284 6.91069L79.332 1L96.8284 6.91069L120.043 12.1206L110.595 36.3048L103.616 49.2461L125.838 92.3161L98.3851 117L72.1341 69.1399L69.9932 50.5709L43.4016 53.6409L1 30.6179L28.3705 5.08025L63.8747 10.7765L79.332 1Z" fill="white"/>
<path d="M79.332 1L96.8284 6.91069L120.043 12.1206L110.595 36.3048L103.616 49.2461L125.838 92.3161L98.3851 117L72.1341 69.1399L69.9932 50.5709L43.4016 53.6409L1 30.6179L28.3705 5.08025L63.8747 10.7765L79.332 1Z" stroke="black"/>
</svg>
